<svg width="25" height="17" viewBox="0 0 25 17" fill="none" xmlns="http://www.w3.org/2000/svg">
<g filter="url(#filter0_d_2136_51740)">
<mask id="path-1-outside-1_2136_51740" maskUnits="userSpaceOnUse" x="0.500977" y="0.5" width="22" height="14" fill="black">
<rect fill="white" x="0.500977" y="0.5" width="22" height="14"/>
<path fill-rule="evenodd" clip-rule="evenodd" d="M2.50098 4.5L2.50098 2.5L20.501 2.5V4.5H18.501V6.5H16.501V8.5L14.501 8.5V10.5H12.501V12.5H10.501V10.5L8.50098 10.5V8.5L6.50098 8.5V6.5L4.50098 6.5L4.50098 4.5H2.50098Z"/>
</mask>
<path fill-rule="evenodd" clip-rule="evenodd" d="M2.50098 4.5L2.50098 2.5L20.501 2.5V4.5H18.501V6.5H16.501V8.5L14.501 8.5V10.5H12.501V12.5H10.501V10.5L8.50098 10.5V8.5L6.50098 8.5V6.5L4.50098 6.5L4.50098 4.5H2.50098Z" fill="#D2D2D2"/>
<path d="M2.50098 2.5V0.5H0.500977L0.500977 2.5H2.50098ZM2.50098 4.5H0.500977L0.500977 6.5H2.50098L2.50098 4.5ZM20.501 2.5H22.501L22.501 0.5H20.501L20.501 2.5ZM20.501 4.5V6.5L22.501 6.5V4.5L20.501 4.5ZM18.501 4.5V2.5H16.501V4.5H18.501ZM18.501 6.5V8.5H20.501V6.5H18.501ZM16.501 6.5V4.5L14.501 4.5V6.5L16.501 6.5ZM16.501 8.5V10.5L18.501 10.5V8.5L16.501 8.5ZM14.501 8.5L14.501 6.5H12.501L12.501 8.5H14.501ZM14.501 10.5V12.5H16.501V10.5H14.501ZM12.501 10.5V8.5H10.501V10.5H12.501ZM12.501 12.5V14.5H14.501V12.5H12.501ZM10.501 12.5H8.50098V14.5L10.501 14.5V12.5ZM10.501 10.5H12.501V8.5H10.501V10.5ZM8.50098 10.5H6.50098V12.5L8.50098 12.5V10.5ZM8.50098 8.5L10.501 8.5L10.501 6.5H8.50098V8.5ZM6.50098 8.5H4.50098V10.5L6.50098 10.5L6.50098 8.5ZM6.50098 6.5H8.50098V4.5H6.50098V6.5ZM4.50098 6.5H2.50098L2.50098 8.5H4.50098L4.50098 6.5ZM4.50098 4.5L6.50098 4.5L6.50098 2.5H4.50098V4.5ZM0.500977 2.5L0.500977 4.5H4.50098V2.5H0.500977ZM20.501 0.5L2.50098 0.5L2.50098 4.5L20.501 4.5L20.501 0.5ZM22.501 4.5V2.5L18.501 2.5V4.5L22.501 4.5ZM18.501 6.5H20.501V2.5L18.501 2.5V6.5ZM20.501 6.5V4.5H16.501V6.5H20.501ZM16.501 8.5L18.501 8.5V4.5H16.501V8.5ZM18.501 8.5V6.5L14.501 6.5L14.501 8.5L18.501 8.5ZM14.501 10.5L16.501 10.5V6.5L14.501 6.5L14.501 10.5ZM16.501 10.5V8.5H12.501V10.5H16.501ZM12.501 12.5H14.501V8.5H12.501V12.5ZM10.501 10.5V12.5H14.501V10.5H10.501ZM12.501 10.5H10.501V14.5H12.501V10.5ZM12.501 12.5V10.5L8.50098 10.5V12.5H12.501ZM8.50098 12.5H10.501V8.5L8.50098 8.5V12.5ZM6.50098 8.5L6.50098 10.5L10.501 10.5V8.5L6.50098 8.5ZM6.50098 10.5L8.50098 10.5V6.5H6.50098L6.50098 10.5ZM4.50098 6.5L4.50098 8.5H8.50098V6.5L4.50098 6.5ZM4.50098 8.5H6.50098V4.5L4.50098 4.5L4.50098 8.5ZM2.50098 4.5L2.50098 6.5L6.50098 6.5V4.5L2.50098 4.5ZM2.50098 6.5H4.50098L4.50098 2.5H2.50098L2.50098 6.5Z" fill="#1E2045" mask="url(#path-1-outside-1_2136_51740)"/>
</g>
<defs>
<filter id="filter0_d_2136_51740" x="0.500977" y="0.5" width="24" height="16" filterUnits="userSpaceOnUse" color-interpolation-filters="sRGB">
<feFlood flood-opacity="0" result="BackgroundImageFix"/>
<feColorMatrix in="SourceAlpha" type="matrix" values="0 0 0 0 0 0 0 0 0 0 0 0 0 0 0 0 0 0 127 0" result="hardAlpha"/>
<feOffset dx="2" dy="2"/>
<feComposite in2="hardAlpha" operator="out"/>
<feColorMatrix type="matrix" values="0 0 0 0 0.117647 0 0 0 0 0.12549 0 0 0 0 0.270588 0 0 0 1 0"/>
<feBlend mode="normal" in2="BackgroundImageFix" result="effect1_dropShadow_2136_51740"/>
<feBlend mode="normal" in="SourceGraphic" in2="effect1_dropShadow_2136_51740" result="shape"/>
</filter>
</defs>
</svg>
