<svg width="16" height="16" viewBox="0 0 16 16" fill="none" xmlns="http://www.w3.org/2000/svg">
<path fill-rule="evenodd" clip-rule="evenodd" d="M6.00367 0.499083V0.998165H8H9.99633V0.499083V0H8H6.00367V0.499083ZM4.4956 1.00937L4.00774 1.01324L4.00386 1.50845L4 2.00367L3.50092 2.00688C3.22642 2.00866 2.77891 2.0103 2.50642 2.01055L2.01101 2.01101V3.00917V4.00734H1.51193H1.01284L1.01257 4.50275C1.01242 4.77524 1.01076 5.22275 1.0089 5.49725L1.0055 5.99633L0.502752 6.00019L0 6.00405V8V9.99595L0.502752 9.99981L1.0055 10.0037L1.0089 10.5028C1.01076 10.7772 1.01242 11.2248 1.01257 11.4972L1.01284 11.9927H1.51193H2.01101V12.9908V13.989H3.00917H4.00734V14.4879V14.9868L4.49541 14.9906C4.76386 14.9928 5.21303 14.9927 5.49358 14.9905L6.00367 14.9864V14.4877V13.989H5.0055H4.00734V13.4899V12.9908H3.50826H3.00917V12.4917V11.9927H2.51009H2.01101V10.9945V9.99633H1.50482H0.998635V8V6.00367H1.50482H2.01101V5.0055V4.00734H2.51009H3.00917V3.50826V3.00917H3.50826H4.00734V2.51009V2.01101H5.0055H6.00367V1.51229V1.01359L5.49358 1.00954C5.21303 1.00732 4.76393 1.00724 4.4956 1.00937ZM10.4917 1.00937L9.99633 1.01323V1.51212V2.01101H10.9945H11.9927V2.51009V3.00917H12.4917H12.9908V3.50826V4.00734H13.4899H13.989V5.0055V6.00367H14.4952H15.0014V8V9.99633H14.4952H13.989V10.9945V11.9927H13.4899H12.9908V12.4917V12.9908H12.4917H11.9927V13.4899V13.989H10.9945H9.99633V14.4877V14.9864L10.5064 14.9905C10.787 14.9927 11.2362 14.9928 11.5046 14.9906L11.9927 14.9868V14.4879V13.989H12.9908H13.989V12.9908V11.9927H14.4881H14.9872L14.9874 11.4972C14.9876 11.2248 14.9892 10.7772 14.9911 10.5028L14.9945 10.0037L15.4972 9.99981L16 9.99595V8V6.00405L15.4972 6.00019L14.9945 5.99633L14.9911 5.49725C14.9892 5.22275 14.9876 4.77524 14.9874 4.50275L14.9872 4.00734H14.4881H13.989V3.00917V2.01101L13.4936 2.01073C13.2211 2.01058 12.7736 2.00892 12.4991 2.00706L12 2.00367L11.9961 1.50864L11.9923 1.01359L11.4897 1.00956C11.2133 1.00732 10.7642 1.00724 10.4917 1.00937ZM6.00367 15.5009V16H8H9.99633V15.5009V15.0018H8H6.00367V15.5009Z" fill="#293842"/>
<path d="M1 6H15V10H1V6Z" fill="#205039"/>
<path d="M2 4H14V12H2V4Z" fill="#205039"/>
<path d="M3 3H13V13H3V3Z" fill="#205039"/>
<path d="M4 2H12V14H4V2Z" fill="#205039"/>
<path d="M6 1H10V15H6V1Z" fill="#205039"/>
<path d="M4.25 6.92857H11.75V9.07143H4.25V6.92857Z" fill="#00AA14"/>
<path d="M4.78571 5.85714H11.2143V10.1429H4.78571V5.85714Z" fill="#00AA14"/>
<path d="M5.32143 5.32143H10.6786V10.6786H5.32143V5.32143Z" fill="#00AA14"/>
<path d="M5.85714 4.78571H10.1429V11.2143H5.85714V4.78571Z" fill="#00AA14"/>
<path d="M6.92857 4.25H9.07143V11.75H6.92857V4.25Z" fill="#00AA14"/>
</svg>
