<svg width="25" height="24" viewBox="0 0 25 24" fill="none" xmlns="http://www.w3.org/2000/svg">
<g clip-path="url(#clip0_1336_104635)">
<path d="M12.6846 10.2594L22.2846 6.78946L22.2846 19.3435L12.6846 24.2407V10.2594Z" fill="#6845E8"/>
<path d="M12.6846 10.0747L2.71526 6.78946V19.3433L12.6846 24.391V10.0747Z" fill="#B63DE1"/>
<path d="M12.5 1.61929L22.2847 6.78857L12.5 11.7732L2.71533 6.78857L12.5 1.61929Z" fill="#7B29D0"/>
<rect x="11.8865" y="11.1897" width="2.2931" height="1.14655" transform="rotate(-180 11.8865 11.1897)" fill="#7F06B3"/>
<rect width="2.2931" height="1.14655" transform="matrix(1 0 0 -1 13.0332 11.1904)" fill="#7F06B3"/>
<rect x="9.59277" y="10.0436" width="2.2931" height="1.14655" transform="rotate(-180 9.59277 10.0436)" fill="#7F06B3"/>
<rect width="2.2931" height="1.14655" transform="matrix(1 0 0 -1 15.3269 10.0436)" fill="#7F06B3"/>
<rect x="7.30225" y="8.89691" width="2.2931" height="1.14655" transform="rotate(-180 7.30225 8.89691)" fill="#7F06B3"/>
<rect width="2.2931" height="1.14655" transform="matrix(1 0 0 -1 17.6204 8.89691)" fill="#7F06B3"/>
<rect x="5.00879" y="7.75122" width="2.2931" height="1.14655" transform="rotate(-180 5.00879 7.75122)" fill="#7F06B3"/>
<rect width="2.2931" height="1.14655" transform="matrix(1 0 0 -1 19.9138 7.75093)" fill="#7F06B3"/>
<rect x="13.053" y="24.3273" width="1.14832" height="13.2924" transform="rotate(-180 13.053 24.3273)" fill="#7F06B3"/>
<path fill-rule="evenodd" clip-rule="evenodd" d="M13.0728 1.06628L11.9262 1.06628V2.21284H13.0728V1.06628ZM11.9265 25.1442H13.073V23.9976H11.9265V25.1442ZM13.073 2.21307H15.3662V3.35963L13.073 3.35963V2.21307ZM9.63605 23.9974H11.9292V22.8508H9.63604L9.63605 23.9974ZM11.9292 2.21307H9.63605V3.35963H11.9292V2.21307ZM15.3662 23.9974H13.073V22.8508H15.3662V23.9974ZM15.3664 3.35851H17.6595V4.50506H15.3664V3.35851ZM7.33976 22.851H9.63286V21.7044H7.33976V22.851ZM9.63286 3.35851H7.33976V4.50506L9.63286 4.50506V3.35851ZM17.6595 22.851H15.3664V21.7044H17.6595V22.851ZM17.6602 4.50658H19.9533V5.65313H17.6602V4.50658ZM5.04889 21.7038H7.34199V20.5573H5.04889V21.7038ZM7.34199 4.50658H5.04889V5.65313H7.34199V4.50658ZM19.9533 21.7038H17.6602V20.5573H19.9533V21.7038ZM19.9536 5.65205H22.2467V6.7986H19.9536V5.65205ZM2.75553 20.5574H5.04863V19.4109H2.75553V20.5574ZM5.04863 5.65205H2.75553V6.7986H5.04863V5.65205ZM22.2467 20.5574H19.9536V19.4109H22.2467V20.5574ZM22.2471 6.79884H23.3936V19.4109H22.2471V6.79884ZM2.75471 6.79884H1.60815V19.4109H2.75471V6.79884Z" fill="#3A0078"/>
</g>
<defs>
<clipPath id="clip0_1336_104635">
<rect width="24" height="24" fill="white" transform="translate(0.5)"/>
</clipPath>
</defs>
</svg>
