<svg width="16" height="16" viewBox="0 0 16 16" fill="none" xmlns="http://www.w3.org/2000/svg">
<path d="M14.6665 5.33366V4.66699H13.9998V4.00033H13.3332V3.33366H12.6665V2.66699H11.9998V2.00033H11.3332V1.33366H10.6665V0.666992H5.33317V1.33366H4.6665V2.00033H3.99984V2.66699H3.33317V3.33366H2.6665V4.00033H1.99984V4.66699H1.33317V5.33366H0.666504V10.667H1.33317V11.3337H1.99984V12.0003H2.6665V12.667H3.33317V13.3337H3.99984V14.0003H4.6665V14.667H5.33317V15.3337H10.6665V14.667H11.3332V14.0003H11.9998V13.3337H12.6665V12.667H13.3332V12.0003H13.9998V11.3337H14.6665V10.667H15.3332V5.33366H14.6665ZM10.6665 11.3337H9.33317V10.667H8.6665V10.0003H7.33317V10.667H6.6665V11.3337H5.33317V10.667H4.6665V9.33366H5.33317V8.66699H5.99984V7.33366H5.33317V6.66699H4.6665V5.33366H5.33317V4.66699H6.6665V5.33366H7.33317V6.00033H8.6665V5.33366H9.33317V4.66699H10.6665V5.33366H11.3332V6.66699H10.6665V7.33366H9.99984V8.66699H10.6665V9.33366H11.3332V10.667H10.6665V11.3337Z" fill="#FF5656"/>
</svg>
