<svg width="44" height="43" viewBox="0 0 44 43" fill="none" xmlns="http://www.w3.org/2000/svg">
<path d="M14.6773 30.7277L14.5664 32.5011L12.9106 32.3974L13.0215 30.6241C13.5732 30.6448 14.1263 30.6925 14.6773 30.7277Z" fill="#83868D"/>
<path d="M7.1075 22.3901L7.0107 23.937C6.46375 23.9045 5.91519 23.8797 5.36931 23.8342L5.46612 22.2873L3.82043 22.1844L3.92325 20.5413L5.56894 20.6443L5.66477 19.1131L6.89568 19.1901L7.30615 19.2158L7.21033 20.747L5.56894 20.6443C5.54425 21.191 5.5354 21.7444 5.46612 22.2873L7.1075 22.3901Z" fill="#ED1B22"/>
<path d="M36.811 22.5996L36.7082 24.2426L35.0953 24.1417L34.9985 25.6886L33.4482 25.5916L33.3511 27.1423C32.7971 27.1113 32.2265 27.1 31.6757 27.0374L31.8695 23.9398L33.545 24.0447L33.6478 22.4016C33.0911 22.3645 32.5299 22.3102 31.9724 22.2968C32.0523 21.2712 32.1024 20.2417 32.1652 19.2148L33.8407 19.3196L33.7436 20.8704C34.2639 20.8658 34.7754 20.9412 35.2939 20.9675L35.1981 22.4987L36.811 22.5996Z" fill="#ED1B22"/>
<path d="M15.4631 18.1695L14.9735 25.9922L13.3177 25.8885C13.2834 26.4203 13.2385 26.9537 13.2178 27.486L8.42527 27.1861C8.448 26.8472 8.57008 25.8523 8.52524 25.5886L6.91345 25.4878L7.0105 23.9371L8.62229 24.0379C8.58705 24.5523 8.58962 25.0775 8.52524 25.5886C8.62066 25.6406 11.3304 25.764 11.6923 25.7868C11.7466 25.2746 11.7581 24.7506 11.7893 24.2361L13.4148 24.3379L13.7102 19.6167L12.0848 19.515L12.1818 17.9642L10.1456 17.8329C9.77773 17.8069 9.38228 17.7481 9.0148 17.766L8.91775 19.3168L7.30596 19.2159L7.40301 17.6651C7.64834 17.6653 7.89518 17.6921 8.13984 17.7112C8.43131 17.7169 8.724 17.7455 9.0148 17.766L9.11339 16.1906C10.7074 16.2435 12.3131 16.3901 13.9059 16.4905C13.8557 17.0127 13.8375 17.5419 13.8073 18.0659L15.0409 18.1431L15.4631 18.1695Z" fill="#ED1B22"/>
<path d="M13.7103 19.6166L13.4148 24.3378L11.7894 24.236C11.7582 24.7506 11.7466 25.2746 11.6923 25.7867C11.3305 25.764 8.62073 25.6405 8.52531 25.5885C8.58968 25.0774 8.58712 24.5522 8.62235 24.0378L7.01056 23.937L7.10737 22.3901L5.46599 22.2874C5.53527 21.7444 5.54412 21.191 5.56881 20.6443L7.2102 20.747L7.30602 19.2158L6.89555 19.1901C7.03201 19.193 7.16981 19.2069 7.30602 19.2158L8.91781 19.3167L9.01486 17.7659C9.38235 17.748 9.7778 17.8068 10.1457 17.8328L12.1819 17.9641L12.0848 19.5149L13.7103 19.6166Z" fill="#FAB13E"/>
<path d="M11.9893 21.0461C11.8951 21.5689 11.9146 22.1573 11.8864 22.6892C11.5919 22.72 9.06922 22.5585 8.7194 22.491C8.79453 21.958 8.7909 21.3871 8.82222 20.8479L11.9893 21.0461Z" fill="#83868D"/>
<path d="M33.648 22.4017L33.5452 24.0447L31.8698 23.9399L31.6759 27.0375C31.6384 27.5167 31.5818 28.0063 31.5852 28.487C30.9942 28.4742 30.4025 28.4105 29.8123 28.376L29.7106 30.0001L22.226 29.5317C22.1606 30.0725 22.1314 30.6488 22.1219 31.1938C21.8466 31.1755 20.5455 31.0375 20.3755 31.1249L20.338 31.198L20.2342 32.8559L14.5664 32.5012L14.6774 30.7279L14.7814 29.0658C15.3445 29.13 15.9214 29.1403 16.4873 29.1725L16.5889 27.5485L14.883 27.4417L14.9737 25.9922L15.4633 18.1696L15.0411 18.1431C15.1817 18.1348 15.3235 18.1557 15.4633 18.1696C15.522 17.6828 15.5297 17.1833 15.5557 16.6935C16.1246 16.7183 16.6933 16.7633 17.2616 16.8003L17.3626 15.1857L15.6567 15.0789L15.7607 13.4169C15.4612 13.3311 14.5084 13.3496 14.1049 13.3133C14.1164 12.7564 14.1722 12.1942 14.2098 11.6379L15.8656 11.7415L21.5334 12.0962L21.4286 13.7716C22.0187 13.8091 22.6143 13.876 23.2053 13.8828C23.1808 14.439 23.1364 14.9895 23.1013 15.5448L30.5859 16.0132L30.4671 17.9125C31.0506 17.9085 31.6562 17.9853 32.24 18.0235C32.1819 18.4228 32.1678 18.8123 32.1655 19.2148C32.1026 20.2418 32.0525 21.2712 31.9726 22.2968C32.5301 22.3103 33.0913 22.3646 33.648 22.4017Z" fill="#C9E8EF"/>
<path d="M20.9385 21.6062L20.8357 23.2492L19.1831 23.1458C19.2269 22.5993 19.2518 22.05 19.286 21.5028L20.9385 21.6062Z" fill="#ED1B22"/>
<path d="M28.6899 20.7207C29.0878 20.7498 29.4867 20.7789 29.8875 20.8065L29.6143 25.1717L25.2255 24.8971L25.4994 20.5217C26.563 20.5651 27.6224 20.6426 28.6899 20.7207Z" stroke="#7CC2CD" stroke-width="0.925765"/>
<path d="M22.3278 27.9074C22.296 28.4488 22.2683 28.9908 22.2261 29.5315L20.4494 29.4203L16.4875 29.1723C16.4732 29.7273 16.4493 30.283 16.3834 30.8345L14.6775 30.7277L14.7816 29.0656C15.3447 29.1298 15.9216 29.1401 16.4875 29.1723L16.5891 27.5483C17.2206 27.5687 17.8561 27.6273 18.487 27.6668L22.3278 27.9074Z" fill="#83868D"/>
<path d="M23.1009 15.5446C23.1447 16.0395 23.0267 16.6523 22.9998 17.1592L17.2612 16.8001L17.3622 15.1855L15.6563 15.0787L15.7603 13.4167C15.4608 13.3309 14.508 13.3494 14.1045 13.3131C14.116 12.7562 14.1717 12.194 14.2094 11.6377L15.8652 11.7413C15.8172 12.2944 15.7659 12.8614 15.7603 13.4167L17.4662 13.5235C17.3959 14.073 17.3851 14.6325 17.3622 15.1855L21.3241 15.4335L23.1009 15.5446Z" fill="#83868D"/>
</svg>
